<svg version="1.1" xmlns="http://www.w3.org/2000/svg" xmlns:xlink="http://www.w3.org/1999/xlink" width="696.5611" height="345.63133" viewBox="0,0,696.5611,345.63133"><g transform="translate(102.12098,-15.44259)"><g data-paper-data="{&quot;isPaintingLayer&quot;:true}" fill-rule="nonzero" stroke-linejoin="miter" stroke-miterlimit="10" stroke-dasharray="" stroke-dashoffset="0" style="mix-blend-mode: normal"><path d="M-100.87098,359.82392v-343.13133h694.0611v343.13133z" fill="#bebebe" stroke="#000000" stroke-width="2.5" stroke-linecap="butt"/><g><path d="M-1.18009,225.2788v-90.69236h71.92842v90.69236z" fill="#078600" stroke="#000000" stroke-width="5" stroke-linecap="butt"/><path d="M1.73893,138.36048l-14.90989,-62.67374l69.97554,-16.64696l14.90989,62.67376z" fill="#ffeeaf" stroke="#000000" stroke-width="5" stroke-linecap="butt"/><path d="M157.36995,132.95361l-77.47854,37.48499l-12.35768,-25.54238l77.47854,-37.48498z" fill="#078600" stroke="#000000" stroke-width="5" stroke-linecap="butt"/><path d="M-1.13434,325.5362v-96.4741h34.04968v96.4741z" fill="#000000" stroke="#000000" stroke-width="5" stroke-linecap="butt"/><path d="M35.75282,326.48203v-99.31158h34.9955v99.31158z" fill="#000000" stroke="#000000" stroke-width="5" stroke-linecap="butt"/><path d="M126.26469,117.37003l11.71636,25.21419" fill="none" stroke="#000000" stroke-width="5" stroke-linecap="round"/><path d="M151.93174,130.52674l-11.73047,5.67534l-8.32383,-17.2047l11.73048,-5.67533z" fill="#ffeeaf" stroke="none" stroke-width="0" stroke-linecap="butt"/><g><path d="M-80.19235,105.69642l80.46997,30.53902l-10.0678,26.52855l-80.46998,-30.53902z" data-paper-data="{&quot;origPos&quot;:null}" fill="#078600" stroke="#000000" stroke-width="5" stroke-linecap="butt"/><path d="M-63.49901,117.60693l-8.22479,22.89644" fill="none" stroke="#000000" stroke-width="5" stroke-linecap="round"/><path d="M-77.96496,111.65238l10.55893,4.0072l-6.78142,17.86896l-10.55893,-4.0072z" fill="#ffeeaf" stroke="none" stroke-width="0" stroke-linecap="butt"/></g><path d="M-5.26114,331.69453v-33.0125h80.79374v33.0125z" fill="#643400" stroke="none" stroke-width="NaN" stroke-linecap="butt"/><path d="M5.61273,84.61065l3.12563,14.73515" fill="none" stroke="#000000" stroke-width="5" stroke-linecap="round"/><path d="M43.1204,89.96889l-2.2326,-12.50256" fill="none" stroke="#000000" stroke-width="5" stroke-linecap="round"/><path d="M37.71217,114.89275l12.59853,-5.83798l5.94131,1.66061" data-paper-data="{&quot;index&quot;:null}" fill="none" stroke="#000000" stroke-width="2.5" stroke-linecap="round"/><path d="M-1.568,77.68506l12.55036,3.08255" fill="none" stroke="#000000" stroke-width="2.5" stroke-linecap="round"/><path d="M45.88232,72.63008l-10.571,-0.0184" fill="none" stroke="#000000" stroke-width="2.5" stroke-linecap="round"/></g><text transform="translate(126.26571,56.42095) scale(0.86875,0.86875)" font-size="40" xml:space="preserve" fill="#ff0000" fill-rule="nonzero" stroke="none" stroke-width="1" stroke-linecap="butt" stroke-linejoin="miter" stroke-miterlimit="10" stroke-dasharray="" stroke-dashoffset="0" font-family="Pixel" font-weight="normal" text-anchor="start" style="mix-blend-mode: normal"><tspan x="0" dy="0">An Error has Occurred</tspan></text><text transform="translate(166.23879,91.41871) scale(0.79161,0.79161)" font-size="40" xml:space="preserve" fill="#000000" fill-rule="nonzero" stroke="none" stroke-width="1" stroke-linecap="butt" stroke-linejoin="miter" stroke-miterlimit="10" stroke-dasharray="" stroke-dashoffset="0" font-family="Pixel" font-weight="normal" text-anchor="start" style="mix-blend-mode: normal"><tspan x="0" dy="0">Uhoh. Thats not good</tspan><tspan x="0" dy="46.15px">Its seams you have </tspan><tspan x="0" dy="46.15px">gotten to a known </tspan><tspan x="0" dy="46.15px">Problematic Part of </tspan><tspan x="0" dy="46.15px">the site. If you don't</tspan><tspan x="0" dy="46.15px">know what happened</tspan><tspan x="0" dy="46.15px">Contact an admin and let</tspan><tspan x="0" dy="46.15px">us know.</tspan></text></g></g></svg>
